# xmcd
#
# Track frame offsets:
# 150
# 13084
# 26247
# 38462
# 50925
# 61842
# 78082
# 91712
# 104725
# 118570
# 129680
# 142412
# 154412
# 167487
# 182012
# 194992
#
# Disc length: 2784 seconds
#
#
# Revision: 6
# Processed by: cddbd v1.5.1PL2 Copyright (c) Steve Scherf et al.
# Submitted via: FreeRIP 2.945 
#
DISCID=e50ade10
DTITLE=Charlie Rich - 16 Biggest Hits
DYEAR=1999
DGENRE=Country
TTITLE0=I Take It Home
TTITLE1=Behind Closed Doors
TTITLE2=The Most Beautiful Girl In The World
TTITLE3=A Very Special Love Song
TTITLE4=I Love My Friend
TTITLE5=My Elusive Dreams
TTITLE6=Every Time You Touch Me (I Get High)
TTITLE7=All Over Me
TTITLE8=Since I Fell For You
TTITLE9=America The Beautiful
TTITLE10=Easy Look
TTITLE11=Rollin' With The Flow
TTITLE12=Beautiful Woman
TTITLE13=On My Knees
TTITLE14=Spanish Eyes
TTITLE15=Amazing Grace
EXTD=Epic Legacy
EXTT0=
EXTT1=
EXTT2=
EXTT3=
EXTT4=
EXTT5=
EXTT6=
EXTT7=
EXTT8=
EXTT9=
EXTT10=
EXTT11=
EXTT12=
EXTT13=
EXTT14=
EXTT15=
PLAYORDER=
